<svg xmlns="http://www.w3.org/2000/svg" xmlns:xlink="http://www.w3.org/1999/xlink" width="710" zoomAndPan="magnify" viewBox="0 0 533.04 266.250005" height="355" preserveAspectRatio="xMidYMid meet" version="1.0"><path fill="#e3fd01" d="M 268.054688 99.613281 C 268.921875 101.683594 268.246094 103.054688 266.027344 103.726562 C 253.75 107.40625 241.289062 108.113281 228.640625 105.84375 C 225.984375 105.371094 225.917969 104.792969 228.441406 104.113281 C 228.8125 104.007812 229.234375 103.929688 229.710938 103.878906 C 236.820312 103.179688 243.703125 102.144531 250.351562 100.769531 C 253.125 100.203125 253.308594 99.171875 250.90625 97.679688 C 246.339844 94.851562 241.589844 92.570312 236.652344 90.828125 C 236.199219 90.671875 235.828125 90.441406 235.539062 90.132812 C 234.21875 88.792969 234.632812 88.398438 236.773438 88.957031 C 237.332031 89.101562 237.804688 89.203125 238.199219 89.265625 C 246.289062 90.386719 254.421875 90.851562 262.597656 90.65625 C 268.964844 90.503906 275.269531 91.035156 281.503906 92.25 C 284.226562 92.777344 284.339844 93.640625 281.84375 94.847656 C 277.609375 96.898438 273.160156 98.222656 268.503906 98.824219 C 268.457031 98.828125 268.417969 98.839844 268.375 98.855469 C 268.335938 98.871094 268.296875 98.890625 268.257812 98.917969 C 268.222656 98.941406 268.191406 98.96875 268.160156 99 C 268.132812 99.03125 268.105469 99.066406 268.085938 99.105469 C 268.0625 99.144531 268.042969 99.183594 268.03125 99.226562 C 268.019531 99.269531 268.011719 99.3125 268.011719 99.355469 C 268.007812 99.398438 268.011719 99.441406 268.015625 99.484375 C 268.023438 99.53125 268.035156 99.570312 268.054688 99.613281 Z M 268.054688 99.613281 " fill-opacity="1" fill-rule="nonzero"/><path fill="#ef2301" d="M 333.039062 91.769531 C 333.769531 91.964844 334.097656 92.261719 334.027344 92.652344 C 334.007812 92.742188 333.964844 92.828125 333.902344 92.910156 C 333.835938 92.992188 333.746094 93.066406 333.640625 93.128906 C 333.53125 93.191406 333.410156 93.238281 333.277344 93.273438 C 333.140625 93.308594 333 93.328125 332.851562 93.332031 C 324.113281 93.652344 315.640625 95.25 307.433594 98.125 C 307.402344 98.136719 304.699219 99.328125 299.316406 101.699219 C 293.089844 104.441406 286.648438 105.414062 279.988281 104.621094 C 279.496094 104.558594 279.226562 104.332031 279.1875 103.941406 C 279.175781 103.84375 279.191406 103.746094 279.234375 103.652344 C 279.273438 103.554688 279.335938 103.46875 279.421875 103.390625 C 279.507812 103.3125 279.609375 103.25 279.726562 103.199219 C 279.84375 103.152344 279.96875 103.121094 280.097656 103.105469 C 285.613281 102.527344 290.183594 100.941406 293.8125 98.34375 C 305.410156 90.011719 318.484375 87.820312 333.039062 91.769531 Z M 333.039062 91.769531 " fill-opacity="1" fill-rule="nonzero"/><path fill="#ffffff" d="M 330.300781 128.625 C 328.375 131.984375 327.152344 135.542969 326.636719 139.296875 C 326.234375 142.191406 326.664062 145.816406 327.917969 150.167969 C 329.722656 156.425781 331.472656 162.574219 333.160156 168.617188 C 333.191406 168.71875 333.207031 168.820312 333.210938 168.925781 C 333.214844 169.035156 333.207031 169.136719 333.1875 169.242188 C 333.167969 169.34375 333.136719 169.445312 333.09375 169.542969 C 333.046875 169.636719 332.996094 169.730469 332.929688 169.8125 C 332.867188 169.898438 332.792969 169.976562 332.710938 170.042969 C 332.628906 170.109375 332.542969 170.167969 332.445312 170.214844 C 332.351562 170.261719 332.25 170.300781 332.148438 170.324219 C 332.042969 170.351562 331.9375 170.363281 331.832031 170.363281 L 247.503906 170.828125 C 245.917969 170.828125 245.816406 170.449219 247.195312 169.683594 C 251.351562 167.40625 255.238281 164.777344 258.855469 161.796875 C 261.359375 159.734375 264.445312 156.265625 268.117188 151.390625 C 273.03125 144.851562 279.308594 137.640625 286.949219 129.753906 C 300.390625 115.867188 316.394531 108.664062 334.96875 108.148438 C 336.671875 108.097656 337.984375 108.78125 338.914062 110.203125 C 341.027344 113.441406 343.296875 115.453125 345.730469 116.238281 C 347.824219 116.90625 348.4375 116.230469 347.570312 114.210938 C 345.058594 108.304688 345.066406 102.183594 347.601562 95.851562 C 348.449219 93.730469 349.46875 93.640625 350.664062 95.589844 C 353.488281 100.21875 356.378906 105.40625 359.339844 111.148438 C 360.109375 112.632812 361.332031 113.351562 363.003906 113.296875 C 363.496094 113.277344 363.597656 113.46875 363.3125 113.871094 C 360.042969 118.355469 355.679688 121.242188 350.214844 122.53125 C 350.09375 122.558594 349.984375 122.605469 349.878906 122.664062 C 349.773438 122.722656 349.683594 122.796875 349.605469 122.878906 C 349.527344 122.964844 349.464844 123.054688 349.421875 123.152344 C 349.378906 123.253906 349.355469 123.355469 349.351562 123.457031 C 349.289062 124.644531 349.988281 125.125 351.453125 124.898438 C 352.660156 124.703125 353.410156 124.597656 353.710938 124.585938 C 360.089844 124.320312 366.257812 123.074219 372.21875 120.84375 C 374.753906 119.90625 376.726562 119.632812 378.140625 120.027344 C 380.394531 120.65625 381.984375 122.191406 382.902344 124.632812 C 383.757812 126.882812 384.621094 128.8125 385.5 130.433594 C 386.292969 131.90625 387.574219 133.566406 389.347656 135.414062 C 396.800781 143.136719 404.753906 151.183594 413.207031 159.554688 C 413.308594 159.65625 413.402344 159.769531 413.484375 159.886719 C 413.566406 160.007812 413.640625 160.132812 413.703125 160.261719 C 413.765625 160.394531 413.816406 160.53125 413.855469 160.667969 C 413.894531 160.808594 413.917969 160.953125 413.933594 161.09375 C 413.945312 161.238281 413.949219 161.382812 413.9375 161.527344 C 413.925781 161.671875 413.902344 161.816406 413.867188 161.953125 C 413.832031 162.09375 413.785156 162.230469 413.726562 162.363281 C 413.664062 162.496094 413.597656 162.621094 413.515625 162.738281 C 411.835938 165.226562 409.757812 167.683594 407.285156 170.117188 C 405.222656 172.160156 404.046875 173.28125 403.757812 173.488281 C 402.273438 174.558594 400.609375 174.941406 398.765625 174.632812 C 397.125 174.355469 395.644531 173.289062 394.328125 171.433594 C 393.585938 170.390625 392.875 169.324219 392.191406 168.230469 C 391.328125 166.828125 390.492188 165.890625 389.6875 165.414062 C 387.421875 164.074219 384.816406 164.226562 381.878906 165.863281 C 381.816406 165.898438 381.757812 165.9375 381.699219 165.980469 C 381.640625 166.023438 381.582031 166.066406 381.53125 166.113281 C 381.476562 166.164062 381.425781 166.214844 381.378906 166.269531 C 381.332031 166.324219 381.289062 166.378906 381.246094 166.441406 C 381.207031 166.5 381.167969 166.5625 381.136719 166.625 C 381.101562 166.6875 381.074219 166.753906 381.046875 166.820312 C 381.019531 166.886719 381 166.957031 380.980469 167.027344 C 380.960938 167.097656 380.949219 167.164062 380.9375 167.238281 C 380.929688 167.308594 380.921875 167.378906 380.921875 167.453125 C 380.917969 167.523438 380.921875 167.597656 380.925781 167.667969 C 380.933594 167.738281 380.945312 167.808594 380.957031 167.882812 C 380.972656 167.953125 380.992188 168.019531 381.015625 168.089844 C 381.039062 168.15625 381.0625 168.222656 381.09375 168.289062 C 381.125 168.355469 381.160156 168.417969 381.195312 168.480469 C 381.234375 168.539062 381.277344 168.601562 381.320312 168.65625 C 381.363281 168.710938 381.410156 168.765625 381.464844 168.820312 L 384.371094 171.726562 C 385.628906 172.984375 385.371094 173.558594 383.597656 173.457031 C 379.320312 173.230469 377.214844 171.175781 377.289062 167.289062 C 377.292969 167.03125 377.269531 166.785156 377.21875 166.535156 C 377.167969 166.292969 377.089844 166.054688 376.988281 165.832031 C 376.882812 165.609375 376.757812 165.402344 376.609375 165.210938 C 376.457031 165.019531 376.289062 164.851562 376.097656 164.703125 L 364.191406 155.609375 C 363.988281 155.453125 363.765625 155.324219 363.523438 155.21875 C 363.28125 155.113281 363.027344 155.035156 362.761719 154.988281 C 362.5 154.941406 362.226562 154.921875 361.953125 154.933594 C 361.675781 154.945312 361.402344 154.984375 361.132812 155.054688 C 351.976562 157.394531 343.90625 156.707031 336.917969 152.996094 C 334.042969 151.460938 332.070312 149.269531 330.996094 146.425781 C 328.945312 141.042969 329.429688 135.5625 332.449219 129.984375 C 332.78125 129.375 332.992188 128.867188 333.085938 128.453125 C 333.402344 126.988281 332.839844 126.671875 331.398438 127.496094 C 330.957031 127.742188 330.589844 128.117188 330.300781 128.625 Z M 369.265625 124.402344 C 366.820312 124.472656 365.460938 125.671875 365.183594 127.988281 C 364.839844 130.949219 366.011719 132.800781 368.691406 133.542969 L 376.46875 135.722656 C 378.910156 136.402344 379.53125 135.574219 378.324219 133.230469 C 376.921875 130.5 375.308594 128.183594 373.484375 126.289062 C 372.226562 124.988281 370.820312 124.359375 369.265625 124.402344 Z M 309.9375 140.378906 C 304.382812 146.574219 301.488281 153.863281 301.25 162.246094 C 301.144531 166.082031 302.109375 166.371094 304.140625 163.113281 C 307.222656 158.164062 310.996094 153.449219 315.457031 148.976562 C 315.511719 148.925781 316.320312 148.199219 317.886719 146.796875 C 321.285156 143.742188 323.277344 139.609375 323.855469 134.390625 C 323.867188 134.285156 323.863281 134.175781 323.847656 134.066406 C 323.835938 133.960938 323.808594 133.855469 323.769531 133.753906 C 323.730469 133.652344 323.679688 133.554688 323.617188 133.46875 C 323.554688 133.378906 323.480469 133.296875 323.398438 133.226562 C 323.316406 133.152344 323.230469 133.089844 323.132812 133.042969 C 323.035156 132.992188 322.933594 132.953125 322.828125 132.925781 C 322.722656 132.898438 322.617188 132.886719 322.507812 132.886719 C 322.398438 132.886719 322.289062 132.898438 322.183594 132.921875 C 317.433594 134.089844 313.351562 136.574219 309.9375 140.378906 Z M 407.625 158.394531 C 406.632812 157.011719 405.40625 156.503906 403.941406 156.863281 C 403.832031 156.890625 403.726562 156.933594 403.625 156.988281 C 403.523438 157.046875 403.429688 157.117188 403.34375 157.203125 C 403.257812 157.289062 403.183594 157.386719 403.121094 157.492188 C 403.058594 157.601562 403.007812 157.714844 402.96875 157.835938 C 400.988281 164.40625 402.804688 166.03125 408.410156 162.710938 C 410.453125 161.503906 410.554688 160.394531 408.722656 159.382812 C 408.289062 159.136719 407.921875 158.808594 407.625 158.394531 Z M 407.625 158.394531 " fill-opacity="1" fill-rule="nonzero"/><path fill="#ef2301" d="M 368.570312 100.105469 C 367.257812 99.324219 367.351562 98.78125 368.847656 98.480469 C 372.816406 97.65625 376.800781 98.578125 380.796875 101.25 C 382.757812 102.558594 383.074219 104.1875 381.757812 106.136719 C 379.59375 109.332031 376.601562 111.855469 372.789062 113.699219 C 371.203125 114.460938 370.898438 114.117188 371.878906 112.664062 C 375.269531 107.613281 374.164062 103.425781 368.570312 100.105469 Z M 368.570312 100.105469 " fill-opacity="1" fill-rule="nonzero"/><path fill="#ef2301" d="M 304.960938 104.21875 C 300.929688 108.664062 296.296875 112.234375 291.058594 114.9375 C 288.441406 116.289062 285.292969 117.070312 281.613281 117.289062 C 273.214844 117.792969 264.800781 118.210938 256.378906 118.539062 C 252.90625 118.683594 252.710938 117.949219 255.792969 116.328125 C 262.914062 112.597656 270.722656 110.75 279.21875 110.792969 C 288.347656 110.84375 296.699219 108.375 304.265625 103.382812 C 305.121094 102.828125 305.464844 102.898438 305.300781 103.601562 C 305.257812 103.808594 305.144531 104.011719 304.960938 104.21875 Z M 304.960938 104.21875 " fill-opacity="1" fill-rule="nonzero"/><path fill="#ef2301" d="M 187.515625 117.859375 C 182.835938 115.964844 178.28125 114.660156 173.847656 113.949219 C 171.609375 113.585938 171.578125 113.089844 173.753906 112.460938 C 182.496094 109.945312 191.214844 109.984375 199.914062 112.570312 C 207.996094 114.984375 216.101562 115.070312 224.234375 112.832031 C 225.722656 112.421875 225.878906 112.777344 224.714844 113.902344 C 218.179688 120.167969 210.320312 123.003906 201.136719 122.40625 C 199.21875 122.285156 194.679688 120.765625 187.515625 117.859375 Z M 187.515625 117.859375 " fill-opacity="1" fill-rule="nonzero"/><path fill="#ef2301" d="M 241.199219 134.65625 C 240.734375 134.550781 240.527344 134.347656 240.578125 134.035156 C 240.59375 133.964844 240.621094 133.898438 240.671875 133.835938 C 240.71875 133.769531 240.78125 133.710938 240.859375 133.660156 C 240.941406 133.613281 241.027344 133.570312 241.128906 133.539062 C 241.230469 133.507812 241.335938 133.488281 241.445312 133.480469 C 247.535156 133.058594 253.292969 131.421875 258.714844 128.578125 C 265.878906 124.8125 273.492188 122.5 281.550781 121.632812 C 284.425781 121.324219 284.632812 121.921875 282.171875 123.429688 C 276.035156 127.199219 270.070312 131.648438 264.265625 136.773438 C 259.070312 141.363281 255.296875 144.253906 252.949219 145.449219 C 248.640625 147.636719 243.984375 148.976562 238.988281 149.472656 C 237.542969 149.617188 237.441406 149.296875 238.675781 148.511719 L 254.539062 138.507812 C 257.386719 136.710938 257.117188 135.855469 253.738281 135.9375 C 249.488281 136.042969 245.308594 135.613281 241.199219 134.65625 Z M 241.199219 134.65625 " fill-opacity="1" fill-rule="nonzero"/><path fill="#ef2301" d="M 168.714844 132.042969 C 171.148438 132.402344 173.585938 132.761719 176.027344 133.125 C 176.542969 133.195312 176.574219 133.371094 176.121094 133.648438 C 172.460938 135.886719 168.632812 136.886719 164.632812 136.648438 C 161.910156 136.496094 158.160156 135.144531 153.378906 132.597656 C 149.871094 130.722656 146.300781 128.835938 142.660156 126.9375 C 141.25 126.195312 141.328125 125.671875 142.894531 125.359375 C 147.5625 124.464844 152.320312 125.382812 157.164062 128.113281 C 158.546875 128.886719 160.417969 129.710938 162.777344 130.589844 C 164.53125 131.226562 166.507812 131.710938 168.714844 132.042969 Z M 168.714844 132.042969 " fill-opacity="1" fill-rule="nonzero"/><path fill="#e3fd01" d="M 226.539062 133.773438 L 230.050781 136.433594 C 231.523438 137.558594 231.324219 138.171875 229.445312 138.273438 C 219.148438 138.851562 208.691406 138.3125 198.074219 136.648438 C 196.003906 136.332031 195.921875 135.742188 197.828125 134.886719 C 203.40625 132.363281 209.523438 130.59375 216.179688 129.582031 C 223.035156 128.542969 229.875 127.453125 236.699219 126.320312 C 237.78125 126.132812 238.089844 126.371094 237.625 127.03125 C 237.492188 127.21875 237.296875 127.382812 237.039062 127.527344 C 233.90625 129.277344 230.558594 130.535156 227.003906 131.300781 C 225.078125 131.722656 224.921875 132.546875 226.539062 133.773438 Z M 226.539062 133.773438 " fill-opacity="1" fill-rule="nonzero"/><path fill="#ef2301" d="M 134.914062 147.246094 C 133.410156 147.285156 133.273438 146.867188 134.5 145.992188 C 136.386719 144.628906 138.363281 143.367188 140.433594 142.203125 C 142.929688 140.808594 145.136719 140.234375 147.054688 140.46875 C 149.507812 140.769531 151.644531 141.902344 153.46875 143.871094 C 153.496094 143.902344 153.519531 143.933594 153.539062 143.96875 C 153.558594 144.007812 153.570312 144.042969 153.578125 144.082031 C 153.589844 144.121094 153.59375 144.164062 153.589844 144.203125 C 153.585938 144.242188 153.582031 144.285156 153.570312 144.324219 C 153.554688 144.363281 153.539062 144.398438 153.515625 144.433594 C 153.496094 144.46875 153.46875 144.5 153.4375 144.527344 C 153.40625 144.554688 153.375 144.582031 153.335938 144.601562 C 153.300781 144.621094 153.261719 144.636719 153.222656 144.644531 C 147.234375 146.203125 141.132812 147.070312 134.914062 147.246094 Z M 134.914062 147.246094 " fill-opacity="1" fill-rule="nonzero"/><path fill="#e3fd01" d="M 171.882812 153.042969 C 170.90625 152.25 171.507812 151.847656 173.691406 151.835938 C 182.09375 151.828125 190.03125 151.261719 197.503906 150.136719 C 199.214844 149.878906 199.429688 150.332031 198.152344 151.496094 C 194.410156 154.878906 190.148438 156.589844 185.367188 156.632812 C 183.746094 156.652344 181.679688 156.277344 179.167969 155.503906 C 177.136719 154.882812 175.109375 154.261719 173.089844 153.632812 C 172.574219 153.476562 172.171875 153.28125 171.882812 153.042969 Z M 171.882812 153.042969 " fill-opacity="1" fill-rule="nonzero"/><path fill="#ef2301" d="M 246.160156 156.042969 C 250.34375 155.558594 254.410156 154.496094 258.359375 152.859375 C 258.761719 152.691406 259.078125 152.65625 259.300781 152.75 C 259.726562 152.9375 259.652344 153.390625 259.085938 154.109375 C 256.023438 157.964844 252.375 160.945312 248.140625 163.050781 C 244.695312 164.742188 240.539062 165.476562 235.664062 165.261719 C 229.632812 164.984375 223.664062 164.101562 217.757812 162.617188 C 216.058594 162.195312 212.570312 161.910156 207.289062 161.765625 C 207.160156 161.761719 207.035156 161.746094 206.914062 161.714844 C 206.792969 161.6875 206.6875 161.644531 206.59375 161.59375 C 206.503906 161.542969 206.433594 161.488281 206.386719 161.421875 C 206.335938 161.359375 206.316406 161.292969 206.316406 161.226562 C 206.328125 160.976562 206.578125 160.738281 207.074219 160.515625 C 215.621094 156.617188 224.488281 154.976562 233.683594 155.59375 C 240.621094 156.046875 244.78125 156.199219 246.160156 156.042969 Z M 246.160156 156.042969 " fill-opacity="1" fill-rule="nonzero"/></svg>